G04 ================== begin FILE IDENTIFICATION RECORD ==================*
G04 Layout Name:  sophum_torque_motor_v1.brd*
G04 Film Name:    BOTTOM*
G04 File Format:  Gerber RS274X*
G04 File Origin:  Cadence Allegro 16.6-2015-S066*
G04 Origin Date:  Fri Sep 04 09:59:53 2020*
G04 *
G04 Layer:  VIA CLASS/BOTTOM*
G04 Layer:  PIN/BOTTOM*
G04 Layer:  ETCH/BOTTOM*
G04 Layer:  BOARD GEOMETRY/OUTLINE*
G04 *
G04 Offset:    (0.00 0.00)*
G04 Mirror:    No*
G04 Mode:      Positive*
G04 Rotation:  0*
G04 FullContactRelief:  No*
G04 UndefLineWidth:     6.00*
G04 ================== end FILE IDENTIFICATION RECORD ====================*
%FSLAX55Y55*MOIN*%
%IR0*IPPOS*OFA0.00000B0.00000*MIA0B0*SFA1.00000B1.00000*%
%ADD12C,.02165*%
%ADD10C,.06299*%
%ADD11R,.06299X.06299*%
%ADD13C,.02*%
%ADD14C,.015*%
%ADD15C,.006*%
%ADD16C,.008*%
%ADD18C,.07302*%
%ADD17C,.03568*%
%ADD19R,.07302X.07302*%
G75*
%LPD*%
G75*
G36*
G01X17994Y11965D02*
Y4263D01*
X25696D01*
Y6302D01*
G02X26454Y6481I400J0D01*
G03X32591Y5860I3265J1633D01*
G02X33306Y5614I315J-247D01*
G01Y1950D01*
X32370Y1014D01*
X15054D01*
X12675Y3393D01*
Y53274D01*
X13221Y53820D01*
X41496D01*
X42471Y52845D01*
Y49941D01*
G03X41774Y48675I2965J-2457D01*
G02X41015Y48669I-381J124D01*
G03Y46299I-3453J-1185D01*
G02X41774Y46293I378J-130D01*
G03X46906Y43925I3662J1191D01*
G01X47151Y43680D01*
X52712D01*
X52727Y43678D01*
G03X53893I583J3806D01*
G01X53908Y43680D01*
X57486D01*
X67840Y33326D01*
Y30127D01*
X66027Y28314D01*
X56433D01*
X54405Y26286D01*
Y17511D01*
X53235Y16341D01*
X41106D01*
X37011Y12246D01*
X34515D01*
X33306Y11037D01*
Y10614D01*
G02X32591Y10368I-400J1D01*
G03X26454Y9747I-2872J-2254D01*
G02X25696Y9926I-358J179D01*
G01Y11965D01*
X17994D01*
G37*
G36*
G01X2500Y1004D02*
G02X1004Y2500I0J1496D01*
G01Y52500D01*
G02X2500Y53996I1496J0D01*
G01X11922D01*
G02X12064Y53655I0J-200D01*
G01X11974Y53565D01*
Y3102D01*
X13389Y1687D01*
G02X13106Y1004I-283J-283D01*
G01X2500D01*
G37*
G36*
G01X73570D02*
G02X73288Y1687I0J400D01*
G01X77814Y6214D01*
Y27366D01*
G03X75612I-1101J1403D01*
G01Y7126D01*
X71303Y2818D01*
X40397D01*
X39194Y4021D01*
G02X39300Y4662I283J282D01*
G03X41160Y6661I-1706J3453D01*
G02X41900I370J-150D01*
G03X49129Y6923I3567J1453D01*
G02X49888Y6929I381J-124D01*
G03X56794I3453J1185D01*
G02X57553Y6923I378J-130D01*
G03Y9305I3662J1191D01*
G02X56794Y9299I-381J124D01*
G03X49888I-3453J-1185D01*
G02X49129Y9305I-378J130D01*
G03X41900Y9567I-3662J-1191D01*
G02X41160I-370J150D01*
G03X38481Y11861I-3566J-1454D01*
G02X38290Y12533I92J389D01*
G01X41397Y15640D01*
X53526D01*
X55106Y17220D01*
Y25995D01*
X56724Y27612D01*
X66318D01*
X68542Y29836D01*
Y30496D01*
X68543Y30508D01*
G03Y30968I-1769J230D01*
G01X68542Y30980D01*
Y33617D01*
X57777Y44382D01*
X56328D01*
G02X56030Y45048I0J400D01*
G03X50590I-2720J2436D01*
G02X50292Y44382I-298J-266D01*
G01X48454D01*
G02X48156Y45048I0J400D01*
G03X43756Y50726I-2719J2436D01*
G02X43172Y51081I-184J355D01*
G01Y53136D01*
X42995Y53313D01*
G02X43278Y53996I283J283D01*
G01X83500D01*
G02X84996Y52500I0J-1496D01*
G01Y2500D01*
G02X83500Y1004I-1496J0D01*
G01X73570D01*
G37*
%LPC*%
G75*
G36*
G01X9633Y4263D02*
X1931D01*
Y11965D01*
X3558D01*
G03X3768Y12706I1J400D01*
G02X4329Y19555I2014J3283D01*
G03Y20295I-150J370D01*
G02X4591Y27524I1453J3567D01*
G03X4597Y28283I-124J381D01*
G02X6967I1185J3453D01*
G03X6973Y27524I130J-378D01*
G02X7235Y20295I-1191J-3662D01*
G03Y19555I150J-370D01*
G02X7796Y12706I-1453J-3566D01*
G03X8006Y11965I209J-341D01*
G01X9633D01*
Y4263D01*
G37*
G54D18*
X29688Y47484D03*
X5782D03*
Y39610D03*
X61184Y47484D03*
G54D17*
X41574Y26515D03*
Y30615D03*
X26644Y25597D03*
X45285Y36465D03*
G54D19*
X21814Y47484D03*
%LPD*%
G75*
G54D10*
X5782Y23862D03*
Y15988D03*
Y47484D03*
Y39610D03*
Y31736D03*
X61215Y8114D03*
X53341D03*
X45467D03*
X37593D03*
X29719D03*
X61184Y47484D03*
X53310D03*
X45436D03*
X37562D03*
X29688D03*
G54D11*
X5782Y8114D03*
X21845D03*
X21814Y47484D03*
G54D12*
X44129Y22191D03*
X39129D03*
X49909D03*
X33129D03*
X81736Y21691D03*
Y10651D03*
X66774Y30738D03*
X68484Y40104D03*
X74484Y46104D03*
X68484D03*
X80484Y52104D03*
X74484D03*
X68484D03*
X66729Y25545D03*
X56394Y25597D03*
X26644D03*
X45285Y36465D03*
X41574Y30615D03*
Y26515D03*
X77004Y39399D03*
X81736Y33879D03*
Y44919D03*
X76713Y28769D03*
G54D13*
G01X21814Y47484D02*
X17962D01*
G01X5782D02*
Y51336D01*
G01Y47484D02*
X9634D01*
G01X5782Y43462D02*
Y39610D01*
G01D02*
X9634D01*
G01X5782D02*
Y35786D01*
G01Y31736D02*
X9634D01*
G01X5782Y47484D02*
Y43660D01*
G01Y35560D02*
Y31736D01*
G01X29719Y8114D02*
Y11966D01*
G01Y8114D02*
Y4262D01*
G01X53341Y8114D02*
Y11966D01*
G01Y8114D02*
Y4262D01*
G01X37562Y47484D02*
Y51336D01*
G01Y47484D02*
X33738D01*
G01X37562D02*
Y43632D01*
G01X29688Y47484D02*
Y51336D01*
G01X33540Y47484D02*
X29688D01*
G01D02*
Y43632D01*
G01Y47484D02*
X25864D01*
G01X21814D02*
Y51336D01*
G01X25666Y47484D02*
X21814D01*
G01D02*
Y43632D01*
G01X61184Y47484D02*
Y51336D01*
G01Y47484D02*
X57360D01*
G01X61184D02*
Y43632D01*
G01Y47484D02*
X65036D01*
G01X53310D02*
Y51336D01*
G01Y47484D02*
X49486D01*
G01X57162D02*
X53310D01*
G01X49288D02*
X45436D01*
G01D02*
Y51336D01*
G54D14*
G01X5782Y47484D02*
X1930D01*
G01X5782Y39610D02*
X1930D01*
G01X5782Y31736D02*
X1930D01*
G54D15*
G01X2500Y0D02*
X83500D01*
G03X86000Y2500I0J2500D01*
G01Y52500D01*
G03X83500Y55000I-2500J0D01*
G01X2500D01*
G03X0Y52500I0J-2500D01*
G01Y2500D01*
G03X2500Y0I2500J0D01*
G54D16*
G01X5782Y35588D02*
Y35560D01*
G01X76713Y28769D02*
Y6670D01*
X71759Y1716D01*
X39941D01*
X37593Y4064D01*
Y8114D01*
G01X45436Y47484D02*
X47074Y51281D01*
M02*
