G04 ================== begin FILE IDENTIFICATION RECORD ==================*
G04 Layout Name:  sophum_torque_motor_v1.brd*
G04 Film Name:    DRILL*
G04 File Format:  Gerber RS274X*
G04 File Origin:  Cadence Allegro 16.6-2015-S066*
G04 Origin Date:  Fri Sep 04 09:59:53 2020*
G04 *
G04 Layer:  MANUFACTURING/NCLEGEND-1-2*
G04 Layer:  MANUFACTURING/NCDRILL_LEGEND*
G04 Layer:  MANUFACTURING/NCDRILL_FIGURE*
G04 Layer:  BOARD GEOMETRY/OUTLINE*
G04 Layer:  BOARD GEOMETRY/DIMENSION*
G04 *
G04 Offset:    (0.00 0.00)*
G04 Mirror:    No*
G04 Mode:      Positive*
G04 Rotation:  0*
G04 FullContactRelief:  No*
G04 UndefLineWidth:     6.00*
G04 ================== end FILE IDENTIFICATION RECORD ====================*
%FSLAX55Y55*MOIN*%
%IR0*IPPOS*OFA0.00000B0.00000*MIA0B0*SFA1.00000B1.00000*%
%AMMACRO11*
1,1,.006,0.0,.025*
20,1,.006,0.0,.025,.021655,-.025,0.0*
1,1,.006,.021655,-.025*
20,1,.006,.021655,-.025,-.021655,-.025,0.0*
1,1,.006,-.021655,-.025*
20,1,.006,-.021655,-.025,0.0,.025,0.0*
1,1,.006,0.0,.025*
1,1,.006,-.00649,-.01082*
20,1,.006,-.00649,-.01082,-.00649,.01083,0.0*
1,1,.006,-.00649,.01083*
1,1,.006,-.00649,0.0*
20,1,.006,-.00649,0.0,-.00469,.00217,0.0*
1,1,.006,-.00469,.00217*
20,1,.006,-.00469,.00217,-.00252,.00325,0.0*
1,1,.006,-.00252,.00325*
20,1,.006,-.00252,.00325,-.00036,.00361,0.0*
1,1,.006,-.00036,.00361*
20,1,.006,-.00036,.00361,.00289,.00289,0.0*
1,1,.006,.00289,.00289*
20,1,.006,.00289,.00289,.00506,.00145,0.0*
1,1,.006,.00506,.00145*
20,1,.006,.00506,.00145,.0065,-.00108,0.0*
1,1,.006,.0065,-.00108*
20,1,.006,.0065,-.00108,.0065,-.00396,0.0*
1,1,.006,.0065,-.00396*
20,1,.006,.0065,-.00396,.00578,-.00685,0.0*
1,1,.006,.00578,-.00685*
20,1,.006,.00578,-.00685,.00434,-.00902,0.0*
1,1,.006,.00434,-.00902*
20,1,.006,.00434,-.00902,.00181,-.01046,0.0*
1,1,.006,.00181,-.01046*
20,1,.006,.00181,-.01046,-.00036,-.01082,0.0*
1,1,.006,-.00036,-.01082*
20,1,.006,-.00036,-.01082,-.00252,-.01046,0.0*
1,1,.006,-.00252,-.01046*
20,1,.006,-.00252,-.01046,-.00469,-.00938,0.0*
1,1,.006,-.00469,-.00938*
20,1,.006,-.00469,-.00938,-.00649,-.00757,0.0*
1,1,.006,-.00649,-.00757*
%
%ADD11MACRO11*%
%AMMACRO10*
1,1,.006,-.0101,-.03248*
20,1,.006,-.0101,-.03248,-.00505,-.03536,0.0*
1,1,.006,-.00505,-.03536*
20,1,.006,-.00505,-.03536,.00073,-.03609,0.0*
1,1,.006,.00073,-.03609*
20,1,.006,.00073,-.03609,.00578,-.03536,0.0*
1,1,.006,.00578,-.03536*
20,1,.006,.00578,-.03536,.01011,-.03176,0.0*
1,1,.006,.01011,-.03176*
20,1,.006,.01011,-.03176,.013,-.0267,0.0*
1,1,.006,.013,-.0267*
20,1,.006,.013,-.0267,.013,.00722,0.0*
1,1,.006,.013,.00722*
1,1,.006,.013,.00145*
20,1,.006,.013,.00145,.01011,.00434,0.0*
1,1,.006,.01011,.00434*
20,1,.006,.01011,.00434,.00578,.0065,0.0*
1,1,.006,.00578,.0065*
20,1,.006,.00578,.0065,.00073,.00722,0.0*
1,1,.006,.00073,.00722*
20,1,.006,.00073,.00722,-.00505,.00578,0.0*
1,1,.006,-.00505,.00578*
20,1,.006,-.00505,.00578,-.00866,.00289,0.0*
1,1,.006,-.00866,.00289*
20,1,.006,-.00866,.00289,-.01155,-.00216,0.0*
1,1,.006,-.01155,-.00216*
20,1,.006,-.01155,-.00216,-.01299,-.00721,0.0*
1,1,.006,-.01299,-.00721*
20,1,.006,-.01299,-.00721,-.01227,-.01155,0.0*
1,1,.006,-.01227,-.01155*
20,1,.006,-.01227,-.01155,-.00938,-.0166,0.0*
1,1,.006,-.00938,-.0166*
20,1,.006,-.00938,-.0166,-.00505,-.02021,0.0*
1,1,.006,-.00505,-.02021*
20,1,.006,-.00505,-.02021,.00073,-.02165,0.0*
1,1,.006,.00073,-.02165*
20,1,.006,.00073,-.02165,.00506,-.02093,0.0*
1,1,.006,.00506,-.02093*
20,1,.006,.00506,-.02093,.01011,-.01804,0.0*
1,1,.006,.01011,-.01804*
20,1,.006,.01011,-.01804,.013,-.01515,0.0*
1,1,.006,.013,-.01515*
%
%ADD10MACRO10*%
%ADD12C,.006*%
G75*
%LPD*%
G75*
G54D10*
X5782Y23862D03*
Y15988D03*
Y8114D03*
X21845D03*
X21814Y47484D03*
X5782D03*
Y39610D03*
Y31736D03*
X137770Y11988D03*
X61215Y8114D03*
X53341D03*
X45467D03*
X37593D03*
X29719D03*
X61184Y47484D03*
X53310D03*
X45436D03*
X37562D03*
X29688D03*
G54D11*
X44129Y22191D03*
X39129D03*
X49909D03*
X33129D03*
X81736Y21691D03*
Y10651D03*
X137770Y36988D03*
X66774Y30738D03*
X68484Y40104D03*
X74484Y46104D03*
X68484D03*
X80484Y52104D03*
X74484D03*
X68484D03*
X66729Y25545D03*
X56394Y25597D03*
X26644D03*
X45285Y36465D03*
X41574Y30615D03*
Y26515D03*
X77004Y39399D03*
X81736Y33879D03*
Y44919D03*
X76713Y28769D03*
G54D12*
G01X92820Y-512D02*
Y124488D01*
X576420D01*
Y-512D01*
X92820D01*
G01X103825Y55738D02*
Y68238D01*
X109715D01*
G01X107545Y62196D02*
X103825D01*
G01X117310Y68238D02*
X121030D01*
G01X119170D02*
Y55738D01*
G01X117310D02*
X121030D01*
G01X132500Y61988D02*
X135600D01*
Y58238D01*
X134670Y56988D01*
X133585Y56155D01*
X132035Y55738D01*
X130485Y56155D01*
X129400Y56988D01*
X128470Y58238D01*
X127850Y59696D01*
X127540Y61363D01*
Y62821D01*
X127850Y64071D01*
X128470Y65530D01*
X129400Y66780D01*
X130330Y67613D01*
X131570Y68238D01*
X132655D01*
X133895Y67821D01*
X134825Y66988D01*
G01X140560Y68238D02*
Y59280D01*
X141180Y57404D01*
X142420Y56155D01*
X143970Y55738D01*
X145520Y56155D01*
X146760Y57404D01*
X147380Y59280D01*
Y68238D01*
G01X153270Y55738D02*
Y68238D01*
X157145D01*
X158385Y67613D01*
X159160Y66780D01*
X159470Y65113D01*
X159160Y63446D01*
X158230Y62405D01*
X157145Y61780D01*
X153270D01*
G01X157145D02*
X159470Y55738D01*
G01X171870D02*
X165670D01*
Y68238D01*
X171870D01*
G01X169390Y62196D02*
X165670D01*
G01X92820Y99488D02*
X576420D01*
G01X92820Y74488D02*
X576420D01*
G01X92820Y49488D02*
X576420D01*
G01X92820Y24488D02*
X576420D01*
G01X249060Y8238D02*
X249990Y6779D01*
X251230Y5946D01*
X252625Y5738D01*
X253865Y5946D01*
X255105Y6988D01*
X255880Y8238D01*
X256035Y9488D01*
X255725Y10946D01*
X254640Y11988D01*
X253555Y12405D01*
X252160D01*
G01X253555D02*
X254485Y13030D01*
X255260Y14071D01*
X255570Y15321D01*
X255260Y16571D01*
X254485Y17613D01*
X253090Y18238D01*
X251695Y18030D01*
X250300Y17196D01*
G01X262235Y7196D02*
X263320Y6155D01*
X264560Y5738D01*
X265800Y6155D01*
X266885Y7404D01*
X267660Y9280D01*
X267970Y11155D01*
Y13446D01*
X267660Y15321D01*
X266885Y16988D01*
X265955Y17821D01*
X264870Y18238D01*
X263630Y17821D01*
X262700Y16988D01*
X262080Y15738D01*
X261770Y14071D01*
X262080Y12613D01*
X262855Y11155D01*
X263785Y10321D01*
X264870Y10113D01*
X266110Y10529D01*
X267040Y11571D01*
X267970Y13446D01*
G01X277270Y5321D02*
X276960Y5530D01*
Y5946D01*
X277270Y6155D01*
X277580Y5946D01*
Y5530D01*
X277270Y5321D01*
G01X286260Y8238D02*
X287190Y6779D01*
X288430Y5946D01*
X289825Y5738D01*
X291065Y5946D01*
X292305Y6988D01*
X293080Y8238D01*
X293235Y9488D01*
X292925Y10946D01*
X291840Y11988D01*
X290755Y12405D01*
X289360D01*
G01X290755D02*
X291685Y13030D01*
X292460Y14071D01*
X292770Y15321D01*
X292460Y16571D01*
X291685Y17613D01*
X290290Y18238D01*
X288895Y18030D01*
X287500Y17196D01*
G01X301760Y5738D02*
X302070Y8446D01*
X302535Y10738D01*
X303155Y12821D01*
X303930Y15113D01*
X305170Y18238D01*
X298970D01*
G01X182720Y74488D02*
Y-512D01*
G01X176210Y105738D02*
Y118238D01*
X179310D01*
X180550Y117613D01*
X181480Y116780D01*
X182255Y115530D01*
X182875Y114071D01*
X183030Y111988D01*
X182875Y109905D01*
X182255Y108446D01*
X181480Y107196D01*
X180550Y106363D01*
X179310Y105738D01*
X176210D01*
G01X188920D02*
Y118238D01*
X192795D01*
X194035Y117613D01*
X194810Y116780D01*
X195120Y115113D01*
X194810Y113446D01*
X193880Y112405D01*
X192795Y111780D01*
X188920D01*
G01X192795D02*
X195120Y105738D01*
G01X202560Y118238D02*
X206280D01*
G01X204420D02*
Y105738D01*
G01X202560D02*
X206280D01*
G01X213720Y118238D02*
Y105738D01*
X219920D01*
G01X226120Y118238D02*
Y105738D01*
X232320D01*
G01X257430Y117196D02*
X256500Y117821D01*
X255415Y118238D01*
X254175D01*
X252780Y117613D01*
X251695Y116571D01*
X250920Y115321D01*
X250300Y113238D01*
X250145Y111363D01*
X250455Y109488D01*
X250920Y108238D01*
X251850Y106988D01*
X252935Y106155D01*
X254020Y105738D01*
X255105D01*
X256190Y106155D01*
X257120Y106779D01*
X257895Y107613D01*
G01X263165Y105738D02*
Y118238D01*
G01X269675D02*
Y105738D01*
G01Y111988D02*
X263165D01*
G01X274945Y105738D02*
X278820Y118238D01*
X282695Y105738D01*
G01X281300Y110113D02*
X276340D01*
G01X288120Y105738D02*
Y118238D01*
X291995D01*
X293235Y117613D01*
X294010Y116780D01*
X294320Y115113D01*
X294010Y113446D01*
X293080Y112405D01*
X291995Y111780D01*
X288120D01*
G01X291995D02*
X294320Y105738D01*
G01X303620Y118238D02*
Y105738D01*
G01X300055Y118238D02*
X307185D01*
G01X316020Y105321D02*
X315710Y105530D01*
Y105946D01*
X316020Y106155D01*
X316330Y105946D01*
Y105530D01*
X316020Y105321D01*
G01Y110946D02*
X315710Y111155D01*
Y111571D01*
X316020Y111780D01*
X316330Y111571D01*
Y111155D01*
X316020Y110946D01*
G01X340820Y118238D02*
Y105738D01*
G01X337255Y118238D02*
X344385D01*
G01X353220Y105738D02*
X351980Y105946D01*
X350895Y106779D01*
X349965Y108030D01*
X349345Y109488D01*
X349035Y111155D01*
Y112821D01*
X349345Y114488D01*
X349965Y115946D01*
X350895Y117196D01*
X351980Y118030D01*
X353220Y118238D01*
X354460Y118030D01*
X355545Y117196D01*
X356475Y115946D01*
X357095Y114488D01*
X357405Y112821D01*
Y111155D01*
X357095Y109488D01*
X356475Y108030D01*
X355545Y106779D01*
X354460Y105946D01*
X353220Y105738D01*
G01X362520D02*
Y118238D01*
X366240D01*
X367480Y117613D01*
X368410Y116155D01*
X368720Y114488D01*
X368410Y112821D01*
X367635Y111571D01*
X366240Y110946D01*
X362520D01*
G01X390420Y118238D02*
Y105738D01*
G01X388250Y114071D02*
X392590D01*
G01X402820Y105738D02*
X401890Y105946D01*
X400960Y106779D01*
X400340Y108238D01*
X400030Y109905D01*
X400340Y111571D01*
X400960Y113030D01*
X401890Y113863D01*
X402820Y114071D01*
X403750Y113863D01*
X404680Y113030D01*
X405300Y111571D01*
X405455Y109905D01*
X405300Y108238D01*
X404680Y106779D01*
X403750Y105946D01*
X402820Y105738D01*
G01X428860Y112405D02*
X429480Y113030D01*
X429945Y114071D01*
X430255Y115530D01*
X429945Y116780D01*
X429325Y117613D01*
X428240Y118238D01*
X424055D01*
Y105738D01*
X429170D01*
X430255Y106571D01*
X430875Y107821D01*
X431185Y109280D01*
X430875Y110738D01*
X429945Y111988D01*
X428860Y112405D01*
X424055D01*
G01X440020Y105738D02*
X438780Y105946D01*
X437695Y106779D01*
X436765Y108030D01*
X436145Y109488D01*
X435835Y111155D01*
Y112821D01*
X436145Y114488D01*
X436765Y115946D01*
X437695Y117196D01*
X438780Y118030D01*
X440020Y118238D01*
X441260Y118030D01*
X442345Y117196D01*
X443275Y115946D01*
X443895Y114488D01*
X444205Y112821D01*
Y111155D01*
X443895Y109488D01*
X443275Y108030D01*
X442345Y106779D01*
X441260Y105946D01*
X440020Y105738D01*
G01X452420Y118238D02*
Y105738D01*
G01X448855Y118238D02*
X455985D01*
G01X464820D02*
Y105738D01*
G01X461255Y118238D02*
X468385D01*
G01X477220Y105738D02*
X475980Y105946D01*
X474895Y106779D01*
X473965Y108030D01*
X473345Y109488D01*
X473035Y111155D01*
Y112821D01*
X473345Y114488D01*
X473965Y115946D01*
X474895Y117196D01*
X475980Y118030D01*
X477220Y118238D01*
X478460Y118030D01*
X479545Y117196D01*
X480475Y115946D01*
X481095Y114488D01*
X481405Y112821D01*
Y111155D01*
X481095Y109488D01*
X480475Y108030D01*
X479545Y106779D01*
X478460Y105946D01*
X477220Y105738D01*
G01X485590D02*
Y118238D01*
X489620Y107821D01*
X493650Y118238D01*
Y105738D01*
G01X206745Y80738D02*
X210620Y93238D01*
X214495Y80738D01*
G01X213100Y85113D02*
X208140D01*
G01X219920Y93238D02*
Y80738D01*
X226120D01*
G01X232320Y93238D02*
Y80738D01*
X238520D01*
G01X256810Y93238D02*
Y84280D01*
X257430Y82404D01*
X258670Y81155D01*
X260220Y80738D01*
X261770Y81155D01*
X263010Y82404D01*
X263630Y84280D01*
Y93238D01*
G01X269055Y80738D02*
Y93238D01*
X276185Y80738D01*
Y93238D01*
G01X283160D02*
X286880D01*
G01X285020D02*
Y80738D01*
G01X283160D02*
X286880D01*
G01X297420Y93238D02*
Y80738D01*
G01X293855Y93238D02*
X300985D01*
G01X306565Y82404D02*
X307805Y81363D01*
X309200Y80738D01*
X310440D01*
X311680Y81363D01*
X312610Y82404D01*
X313075Y83863D01*
X312765Y85321D01*
X311990Y86571D01*
X310595Y87405D01*
X308735Y87821D01*
X307650Y88655D01*
X307185Y90113D01*
X307495Y91571D01*
X308270Y92613D01*
X309355Y93238D01*
X310440D01*
X311525Y92821D01*
X312455Y91780D01*
G01X330745Y80738D02*
X334620Y93238D01*
X338495Y80738D01*
G01X337100Y85113D02*
X332140D01*
G01X343920Y80738D02*
Y93238D01*
X347795D01*
X349035Y92613D01*
X349810Y91780D01*
X350120Y90113D01*
X349810Y88446D01*
X348880Y87405D01*
X347795Y86780D01*
X343920D01*
G01X347795D02*
X350120Y80738D01*
G01X362520D02*
X356320D01*
Y93238D01*
X362520D01*
G01X360040Y87196D02*
X356320D01*
G01X382360Y93238D02*
X386080D01*
G01X384220D02*
Y80738D01*
G01X382360D02*
X386080D01*
G01X393055D02*
Y93238D01*
X400185Y80738D01*
Y93238D01*
G01X417390Y80738D02*
Y93238D01*
X421420Y82821D01*
X425450Y93238D01*
Y80738D01*
G01X431960Y93238D02*
X435680D01*
G01X433820D02*
Y80738D01*
G01X431960D02*
X435680D01*
G01X443120Y93238D02*
Y80738D01*
X449320D01*
G01X455365Y82404D02*
X456605Y81363D01*
X458000Y80738D01*
X459240D01*
X460480Y81363D01*
X461410Y82404D01*
X461875Y83863D01*
X461565Y85321D01*
X460790Y86571D01*
X459395Y87405D01*
X457535Y87821D01*
X456450Y88655D01*
X455985Y90113D01*
X456295Y91571D01*
X457070Y92613D01*
X458155Y93238D01*
X459240D01*
X460325Y92821D01*
X461255Y91780D01*
G01X255415Y57404D02*
X256655Y56363D01*
X258050Y55738D01*
X259290D01*
X260530Y56363D01*
X261460Y57404D01*
X261925Y58863D01*
X261615Y60321D01*
X260840Y61571D01*
X259445Y62405D01*
X257585Y62821D01*
X256500Y63655D01*
X256035Y65113D01*
X256345Y66571D01*
X257120Y67613D01*
X258205Y68238D01*
X259290D01*
X260375Y67821D01*
X261305Y66780D01*
G01X269210Y68238D02*
X272930D01*
G01X271070D02*
Y55738D01*
G01X269210D02*
X272930D01*
G01X280525Y68238D02*
X286415D01*
X280525Y55738D01*
X286415D01*
G01X298970D02*
X292770D01*
Y68238D01*
X298970D01*
G01X296490Y62196D02*
X292770D01*
G01X258670Y30738D02*
Y43238D01*
X256810Y40738D01*
G01Y30738D02*
X260530D01*
G01X271070Y43238D02*
X269830Y42821D01*
X268900Y41780D01*
X268280Y40530D01*
X267815Y38863D01*
X267660Y36988D01*
X267815Y35113D01*
X268280Y33446D01*
X268900Y32196D01*
X269830Y31155D01*
X271070Y30738D01*
X272310Y31155D01*
X273240Y32196D01*
X273860Y33446D01*
X274325Y35113D01*
X274480Y36988D01*
X274325Y38863D01*
X273860Y40530D01*
X273240Y41780D01*
X272310Y42821D01*
X271070Y43238D01*
G01X283470Y30321D02*
X283160Y30530D01*
Y30946D01*
X283470Y31155D01*
X283780Y30946D01*
Y30530D01*
X283470Y30321D01*
G01X295870Y43238D02*
X294630Y42821D01*
X293700Y41780D01*
X293080Y40530D01*
X292615Y38863D01*
X292460Y36988D01*
X292615Y35113D01*
X293080Y33446D01*
X293700Y32196D01*
X294630Y31155D01*
X295870Y30738D01*
X297110Y31155D01*
X298040Y32196D01*
X298660Y33446D01*
X299125Y35113D01*
X299280Y36988D01*
X299125Y38863D01*
X298660Y40530D01*
X298040Y41780D01*
X297110Y42821D01*
X295870Y43238D01*
G01X371820Y74488D02*
Y-512D01*
G01X401270Y5738D02*
Y18238D01*
X404990D01*
X406230Y17613D01*
X407160Y16155D01*
X407470Y14488D01*
X407160Y12821D01*
X406385Y11571D01*
X404990Y10946D01*
X401270D01*
G01X413670Y18238D02*
Y5738D01*
X419870D01*
G01X425295D02*
X429170Y18238D01*
X433045Y5738D01*
G01X431650Y10113D02*
X426690D01*
G01X441570Y18238D02*
Y5738D01*
G01X438005Y18238D02*
X445135D01*
G01X457070Y5738D02*
X450870D01*
Y18238D01*
X457070D01*
G01X454590Y12196D02*
X450870D01*
G01X462960Y5738D02*
Y18238D01*
X466060D01*
X467300Y17613D01*
X468230Y16780D01*
X469005Y15530D01*
X469625Y14071D01*
X469780Y11988D01*
X469625Y9905D01*
X469005Y8446D01*
X468230Y7196D01*
X467300Y6363D01*
X466060Y5738D01*
X462960D01*
G01X498920Y74488D02*
Y-512D01*
G01X401270Y55738D02*
Y68238D01*
X404990D01*
X406230Y67613D01*
X407160Y66155D01*
X407470Y64488D01*
X407160Y62821D01*
X406385Y61571D01*
X404990Y60946D01*
X401270D01*
G01X413670Y68238D02*
Y55738D01*
X419870D01*
G01X425295D02*
X429170Y68238D01*
X433045Y55738D01*
G01X431650Y60113D02*
X426690D01*
G01X441570Y68238D02*
Y55738D01*
G01X438005Y68238D02*
X445135D01*
G01X457070Y55738D02*
X450870D01*
Y68238D01*
X457070D01*
G01X454590Y62196D02*
X450870D01*
G01X462960Y55738D02*
Y68238D01*
X466060D01*
X467300Y67613D01*
X468230Y66780D01*
X469005Y65530D01*
X469625Y64071D01*
X469780Y61988D01*
X469625Y59905D01*
X469005Y58446D01*
X468230Y57196D01*
X467300Y56363D01*
X466060Y55738D01*
X462960D01*
G01X401270Y30738D02*
Y43238D01*
X404990D01*
X406230Y42613D01*
X407160Y41155D01*
X407470Y39488D01*
X407160Y37821D01*
X406385Y36571D01*
X404990Y35946D01*
X401270D01*
G01X413670Y43238D02*
Y30738D01*
X419870D01*
G01X425295D02*
X429170Y43238D01*
X433045Y30738D01*
G01X431650Y35113D02*
X426690D01*
G01X441570Y43238D02*
Y30738D01*
G01X438005Y43238D02*
X445135D01*
G01X457070Y30738D02*
X450870D01*
Y43238D01*
X457070D01*
G01X454590Y37196D02*
X450870D01*
G01X462960Y30738D02*
Y43238D01*
X466060D01*
X467300Y42613D01*
X468230Y41780D01*
X469005Y40530D01*
X469625Y39071D01*
X469780Y36988D01*
X469625Y34905D01*
X469005Y33446D01*
X468230Y32196D01*
X467300Y31363D01*
X466060Y30738D01*
X462960D01*
G01X531470Y5738D02*
Y18238D01*
X529610Y15738D01*
G01Y5738D02*
X533330D01*
G01X543870D02*
X544955Y5946D01*
X546195Y6571D01*
X546970Y7613D01*
X547280Y9071D01*
X546970Y10529D01*
X546040Y11780D01*
X544645Y12405D01*
X543095D01*
X542165Y12821D01*
X541390Y13863D01*
X541080Y15321D01*
X541545Y16780D01*
X542630Y17821D01*
X543870Y18238D01*
X545110Y17821D01*
X546195Y16780D01*
X546660Y15321D01*
X546350Y13863D01*
X545575Y12821D01*
X544645Y12405D01*
X543095D01*
X541700Y11780D01*
X540770Y10529D01*
X540460Y9071D01*
X540770Y7613D01*
X541545Y6571D01*
X542785Y5946D01*
X543870Y5738D01*
G01X525270Y55738D02*
X524030Y55946D01*
X522945Y56779D01*
X522015Y58030D01*
X521395Y59488D01*
X521085Y61155D01*
Y62821D01*
X521395Y64488D01*
X522015Y65946D01*
X522945Y67196D01*
X524030Y68030D01*
X525270Y68238D01*
X526510Y68030D01*
X527595Y67196D01*
X528525Y65946D01*
X529145Y64488D01*
X529455Y62821D01*
Y61155D01*
X529145Y59488D01*
X528525Y58030D01*
X527595Y56779D01*
X526510Y55946D01*
X525270Y55738D01*
G01X526510Y59071D02*
X528370Y55738D01*
G01X537670Y68238D02*
Y55738D01*
G01X534105Y68238D02*
X541235D01*
G01X550070Y55738D02*
Y61363D01*
X546970Y68238D01*
G01X553170D02*
X550070Y61363D01*
G01X528525Y41155D02*
X529455Y42404D01*
X530540Y43030D01*
X531780Y43238D01*
X533330Y42821D01*
X534415Y41780D01*
X534725Y40530D01*
X534570Y39279D01*
X533950Y38238D01*
X530850Y36155D01*
X529455Y34696D01*
X528525Y32613D01*
X528215Y30738D01*
X534725D01*
G01X540460Y33238D02*
X541390Y31779D01*
X542630Y30946D01*
X544025Y30738D01*
X545265Y30946D01*
X546505Y31988D01*
X547280Y33238D01*
X547435Y34488D01*
X547125Y35946D01*
X546040Y36988D01*
X544955Y37405D01*
X543560D01*
G01X544955D02*
X545885Y38030D01*
X546660Y39071D01*
X546970Y40321D01*
X546660Y41571D01*
X545885Y42613D01*
X544490Y43238D01*
X543095Y43030D01*
X541700Y42196D01*
G01X2500Y0D02*
X83500D01*
G03X86000Y2500I0J2500D01*
G01Y52500D01*
G03X83500Y55000I-2500J0D01*
G01X2500D01*
G03X0Y52500I0J-2500D01*
G01Y2500D01*
G03X2500Y0I2500J0D01*
M02*
