G04 ================== begin FILE IDENTIFICATION RECORD ==================*
G04 Layout Name:  sophum_torque_motor_v1.brd*
G04 Film Name:    SILKTOP*
G04 File Format:  Gerber RS274X*
G04 File Origin:  Cadence Allegro 16.6-2015-S066*
G04 Origin Date:  Fri Sep 04 09:59:53 2020*
G04 *
G04 Layer:  PACKAGE GEOMETRY/SILKSCREEN_TOP*
G04 Layer:  BOARD GEOMETRY/SILKSCREEN_TOP*
G04 Layer:  BOARD GEOMETRY/OUTLINE*
G04 *
G04 Offset:    (0.00 0.00)*
G04 Mirror:    No*
G04 Mode:      Positive*
G04 Rotation:  0*
G04 FullContactRelief:  No*
G04 UndefLineWidth:     6.00*
G04 ================== end FILE IDENTIFICATION RECORD ====================*
%FSLAX55Y55*MOIN*%
%IR0*IPPOS*OFA0.00000B0.00000*MIA0B0*SFA1.00000B1.00000*%
%ADD10C,.006*%
%ADD11C,.00591*%
G75*
%LPD*%
G75*
G54D10*
G01X11873Y17442D02*
Y18442D01*
G01Y17942D02*
X15873D01*
G01Y17442D02*
Y18442D01*
G01Y21442D02*
X11873D01*
X12673Y20942D01*
G01X15873D02*
Y21942D01*
G01X15405Y5534D02*
X12738D01*
G01X13405D02*
X13072Y5700D01*
X12805Y5950D01*
X12738Y6284D01*
X12805Y6575D01*
X13072Y6825D01*
X13538Y6950D01*
X15405D01*
G01X14872Y8867D02*
X15205Y9200D01*
X15405Y9575D01*
Y9909D01*
X15205Y10242D01*
X14872Y10492D01*
X14405Y10617D01*
X13938Y10534D01*
X13538Y10325D01*
X13272Y9950D01*
X13138Y9450D01*
X12872Y9159D01*
X12405Y9034D01*
X11938Y9117D01*
X11605Y9325D01*
X11405Y9617D01*
Y9909D01*
X11538Y10200D01*
X11872Y10450D01*
G01X15405Y12409D02*
X11405D01*
Y13409D01*
X11605Y13742D01*
X12072Y13992D01*
X12605Y14075D01*
X13138Y13992D01*
X13538Y13784D01*
X13738Y13409D01*
Y12409D01*
G01X2500Y0D02*
X83500D01*
G03X86000Y2500I0J2500D01*
G01Y52500D01*
G03X83500Y55000I-2500J0D01*
G01X2500D01*
G03X0Y52500I0J-2500D01*
G01Y2500D01*
G03X2500Y0I2500J0D01*
G01X6569Y2671D02*
X2569D01*
X3369Y2171D01*
G01X6569D02*
Y3171D01*
G01X16402Y7327D02*
Y11327D01*
X15902Y10527D01*
G01Y7327D02*
X16902D01*
G01X13444Y37965D02*
Y38798D01*
X14644D01*
X15044Y38548D01*
X15311Y38257D01*
X15444Y37840D01*
X15311Y37423D01*
X15044Y37132D01*
X14644Y36882D01*
X14177Y36715D01*
X13644Y36632D01*
X13177D01*
X12777Y36715D01*
X12311Y36882D01*
X11911Y37132D01*
X11644Y37382D01*
X11444Y37715D01*
Y38007D01*
X11577Y38340D01*
X11844Y38590D01*
G01X15444Y40257D02*
X11444D01*
X15444Y42173D01*
X11444D01*
G01X15444Y43798D02*
X11444D01*
Y44632D01*
X11644Y44965D01*
X11911Y45215D01*
X12311Y45423D01*
X12777Y45590D01*
X13444Y45632D01*
X14111Y45590D01*
X14577Y45423D01*
X14977Y45215D01*
X15244Y44965D01*
X15444Y44632D01*
Y43798D01*
G01X11678Y25203D02*
Y26203D01*
G01Y25703D02*
X15678D01*
G01Y25203D02*
Y26203D01*
G01X12345Y28411D02*
X11945Y28661D01*
X11745Y28953D01*
X11678Y29286D01*
X11811Y29703D01*
X12145Y29995D01*
X12545Y30078D01*
X12945Y30036D01*
X13278Y29870D01*
X13945Y29036D01*
X14411Y28661D01*
X15078Y28411D01*
X15678Y28328D01*
Y30078D01*
G01X11583Y48282D02*
X13455D01*
Y47073D01*
G01X11583Y32097D02*
X13650D01*
Y35451D01*
G01X15708Y46775D02*
Y50775D01*
X15208Y49975D01*
G01Y46775D02*
X16208D01*
G01X63180Y14276D02*
X63113Y13943D01*
X62847Y13651D01*
X62447Y13401D01*
X61980Y13234D01*
X61447Y13151D01*
X60913D01*
X60380Y13234D01*
X59913Y13401D01*
X59513Y13651D01*
X59247Y13943D01*
X59180Y14276D01*
X59247Y14609D01*
X59513Y14901D01*
X59913Y15151D01*
X60380Y15318D01*
X60913Y15401D01*
X61447D01*
X61980Y15318D01*
X62447Y15151D01*
X62847Y14901D01*
X63113Y14609D01*
X63180Y14276D01*
G01X59180Y17776D02*
X63180D01*
G01X59180Y16818D02*
Y18734D01*
G01X63180Y21276D02*
X59180D01*
X59980Y20776D01*
G01X63180D02*
Y21776D01*
G01X53458Y14526D02*
Y15359D01*
X54658D01*
X55058Y15109D01*
X55325Y14818D01*
X55458Y14401D01*
X55325Y13984D01*
X55058Y13693D01*
X54658Y13443D01*
X54191Y13276D01*
X53658Y13193D01*
X53191D01*
X52791Y13276D01*
X52325Y13443D01*
X51925Y13693D01*
X51658Y13943D01*
X51458Y14276D01*
Y14568D01*
X51591Y14901D01*
X51858Y15151D01*
G01X55458Y16818D02*
X51458D01*
X55458Y18734D01*
X51458D01*
G01X55458Y20359D02*
X51458D01*
Y21193D01*
X51658Y21526D01*
X51925Y21776D01*
X52325Y21984D01*
X52791Y22151D01*
X53458Y22193D01*
X54125Y22151D01*
X54591Y21984D01*
X54991Y21776D01*
X55258Y21526D01*
X55458Y21193D01*
Y20359D01*
G01X46891Y13089D02*
X47224Y13422D01*
X47424Y13797D01*
Y14131D01*
X47224Y14464D01*
X46891Y14714D01*
X46424Y14839D01*
X45957Y14756D01*
X45557Y14547D01*
X45291Y14172D01*
X45157Y13672D01*
X44891Y13381D01*
X44424Y13256D01*
X43957Y13339D01*
X43624Y13547D01*
X43424Y13839D01*
Y14131D01*
X43557Y14422D01*
X43891Y14672D01*
G01X45424Y17714D02*
Y18547D01*
X46624D01*
X47024Y18297D01*
X47291Y18006D01*
X47424Y17589D01*
X47291Y17172D01*
X47024Y16881D01*
X46624Y16631D01*
X46157Y16464D01*
X45624Y16381D01*
X45157D01*
X44757Y16464D01*
X44291Y16631D01*
X43891Y16881D01*
X43624Y17131D01*
X43424Y17464D01*
Y17756D01*
X43557Y18089D01*
X43824Y18339D01*
G01X45291Y21297D02*
X45091Y21464D01*
X44757Y21589D01*
X44291Y21672D01*
X43891Y21589D01*
X43624Y21422D01*
X43424Y21131D01*
Y20006D01*
X47424D01*
Y21381D01*
X47157Y21672D01*
X46757Y21839D01*
X46291Y21922D01*
X45824Y21839D01*
X45424Y21589D01*
X45291Y21297D01*
Y20006D01*
G01X39247Y13089D02*
X39580Y13422D01*
X39780Y13797D01*
Y14131D01*
X39580Y14464D01*
X39247Y14714D01*
X38780Y14839D01*
X38313Y14756D01*
X37913Y14547D01*
X37647Y14172D01*
X37513Y13672D01*
X37247Y13381D01*
X36780Y13256D01*
X36313Y13339D01*
X35980Y13547D01*
X35780Y13839D01*
Y14131D01*
X35913Y14422D01*
X36247Y14672D01*
G01X37780Y17714D02*
Y18547D01*
X38980D01*
X39380Y18297D01*
X39647Y18006D01*
X39780Y17589D01*
X39647Y17172D01*
X39380Y16881D01*
X38980Y16631D01*
X38513Y16464D01*
X37980Y16381D01*
X37513D01*
X37113Y16464D01*
X36647Y16631D01*
X36247Y16881D01*
X35980Y17131D01*
X35780Y17464D01*
Y17756D01*
X35913Y18089D01*
X36180Y18339D01*
G01X39780Y19922D02*
X35780Y20964D01*
X39780Y22006D01*
G01X38380Y21631D02*
Y20297D01*
G01X27590Y13195D02*
X31590Y14237D01*
X27590Y15279D01*
G01X27923Y18654D02*
X27723Y18404D01*
X27590Y18112D01*
Y17779D01*
X27790Y17404D01*
X28123Y17112D01*
X28523Y16904D01*
X29190Y16737D01*
X29790Y16695D01*
X30390Y16779D01*
X30790Y16904D01*
X31190Y17154D01*
X31457Y17445D01*
X31590Y17737D01*
Y18029D01*
X31457Y18320D01*
X31257Y18570D01*
X30990Y18779D01*
G01X27923Y22154D02*
X27723Y21904D01*
X27590Y21612D01*
Y21279D01*
X27790Y20904D01*
X28123Y20612D01*
X28523Y20404D01*
X29190Y20237D01*
X29790Y20195D01*
X30390Y20279D01*
X30790Y20404D01*
X31190Y20654D01*
X31457Y20945D01*
X31590Y21237D01*
Y21529D01*
X31457Y21820D01*
X31257Y22070D01*
X30990Y22279D01*
G01X23790Y14237D02*
X23723Y13904D01*
X23457Y13612D01*
X23057Y13362D01*
X22590Y13195D01*
X22057Y13112D01*
X21523D01*
X20990Y13195D01*
X20523Y13362D01*
X20123Y13612D01*
X19857Y13904D01*
X19790Y14237D01*
X19857Y14570D01*
X20123Y14862D01*
X20523Y15112D01*
X20990Y15279D01*
X21523Y15362D01*
X22057D01*
X22590Y15279D01*
X23057Y15112D01*
X23457Y14862D01*
X23723Y14570D01*
X23790Y14237D01*
G01X19790Y17737D02*
X23790D01*
G01X19790Y16779D02*
Y18695D01*
G01X20457Y20445D02*
X20057Y20695D01*
X19857Y20987D01*
X19790Y21320D01*
X19923Y21737D01*
X20257Y22029D01*
X20657Y22112D01*
X21057Y22070D01*
X21390Y21904D01*
X22057Y21070D01*
X22523Y20695D01*
X23190Y20445D01*
X23790Y20362D01*
Y22112D01*
G01X25285Y40816D02*
X26327Y36816D01*
X27369Y40816D01*
G01X30744Y40483D02*
X30494Y40683D01*
X30202Y40816D01*
X29869D01*
X29494Y40616D01*
X29202Y40283D01*
X28994Y39883D01*
X28827Y39216D01*
X28785Y38616D01*
X28869Y38016D01*
X28994Y37616D01*
X29244Y37216D01*
X29535Y36949D01*
X29827Y36816D01*
X30119D01*
X30410Y36949D01*
X30660Y37149D01*
X30869Y37416D01*
G01X34244Y40483D02*
X33994Y40683D01*
X33702Y40816D01*
X33369D01*
X32994Y40616D01*
X32702Y40283D01*
X32494Y39883D01*
X32327Y39216D01*
X32285Y38616D01*
X32369Y38016D01*
X32494Y37616D01*
X32744Y37216D01*
X33035Y36949D01*
X33327Y36816D01*
X33619D01*
X33910Y36949D01*
X34160Y37149D01*
X34369Y37416D01*
G01X49938Y38738D02*
X50771D01*
Y37538D01*
X50521Y37138D01*
X50230Y36871D01*
X49813Y36738D01*
X49396Y36871D01*
X49105Y37138D01*
X48855Y37538D01*
X48688Y38005D01*
X48605Y38538D01*
Y39005D01*
X48688Y39405D01*
X48855Y39871D01*
X49105Y40271D01*
X49355Y40538D01*
X49688Y40738D01*
X49980D01*
X50313Y40605D01*
X50563Y40338D01*
G01X52230Y36738D02*
Y40738D01*
X54146Y36738D01*
Y40738D01*
G01X55771Y36738D02*
Y40738D01*
X56605D01*
X56938Y40538D01*
X57188Y40271D01*
X57396Y39871D01*
X57563Y39405D01*
X57605Y38738D01*
X57563Y38071D01*
X57396Y37605D01*
X57188Y37205D01*
X56938Y36938D01*
X56605Y36738D01*
X55771D01*
G01X24609Y38844D02*
X21684D01*
Y41613D01*
G01X34596Y39040D02*
X37521D01*
Y41809D01*
G01X58503Y38767D02*
X61428D01*
Y41536D01*
G01X47814Y38805D02*
X44889D01*
Y41574D01*
G54D11*
G01X1451Y3783D02*
Y51815D01*
X10506D01*
Y3783D01*
X1451D01*
G01X17514Y12445D02*
X65546D01*
Y3390D01*
X17514D01*
Y12445D01*
G01X17483Y51815D02*
X65515D01*
Y42760D01*
X17483D01*
Y51815D01*
G01X47057Y22644D02*
G03I-394J0D01*
G01X70791Y21486D02*
Y14399D01*
X77878D01*
G01X45876Y23826D02*
X47057D01*
Y25007D01*
G01X37214Y33274D02*
X36033D01*
Y32093D01*
G01Y25007D02*
Y23826D01*
X37214D01*
G01X47057Y32093D02*
Y33274D01*
X45876D01*
G01X70004Y35265D02*
G03I-394J0D01*
G01X70791Y34084D02*
Y41171D01*
X77878D01*
G01X52310Y27566D02*
X55066D01*
Y23628D01*
X52310D01*
G01X50736Y27566D02*
X47980D01*
Y23628D01*
X50736D01*
G01X30728D02*
X27972D01*
Y27566D01*
X30728D01*
G01X32302Y23628D02*
X35058D01*
Y27566D01*
X32302D01*
M02*
