M48
INCH,LZ
T01C.01
T02C.03937
;LEADER: 12 
;HEADER: 
;CODE  : ASCII 
;FILE  : sophum_torque_motor_v1-1-2.drl for board #Taaaabj13824.tmp ... layers TOP and BOTTOM
;T01 Holesize 1. = 10.000000 Tolerance = +0.000000/-0.000000 PLATED MILS Quantity = 23
;T02 Holesize 2. = 39.370000 Tolerance = +0.000000/-0.000000 PLATED MILS Quantity = 18
%
G90
T01
X002664Y00256
X003313Y002219
X003913Y002219
X004413Y002219
X004991Y002219
X004157Y002652
X004157Y003062
X004528Y003646
X005639Y00256
X006673Y002554
X006677Y003074
X006848Y00401
X006848Y00461
X006848Y00521
X007448Y00521
X007448Y00461
X0077Y00394
X007671Y002877
X008174Y001065
X008174Y002169
X008174Y003388
X008174Y004492
X008048Y00521
T02
X000578Y000811
X000578Y001599
X000578Y002386
X002184Y000811
X002972Y000811
X003759Y000811
X004547Y000811
X005334Y000811
X006121Y000811
X006118Y004748
X005331Y004748
X004544Y004748
X003756Y004748
X002969Y004748
X002181Y004748
X000578Y004748
X000578Y003961
X000578Y003174
M30
